<?xml version="1.0" encoding="utf-8"?>
<!-- Generator: Adobe Illustrator 18.1.1, SVG Export Plug-In . SVG Version: 6.00 Build 0)  -->
<svg version="1.1" id="Layer_1" xmlns="http://www.w3.org/2000/svg" xmlns:xlink="http://www.w3.org/1999/xlink" x="0px" y="0px"
	 viewBox="0 309.9 595.3 218" enable-background="new 0 309.9 595.3 218" xml:space="preserve">
<g>
	<g enable-background="new    ">
		<path fill="#282C3F" d="M271.2,400.5h4.4l13.7,26.3l13.5-26.3h4.4v35.1H304v-30.2l-13.7,26.5h-1.9l-13.7-26.5v30.2h-3.3v-35.1
			H271.2z"/>
		<path fill="#282C3F" d="M343.6,400.5l-13.5,22.6v12.6h-3.5v-12.6l-13.7-22.6h3.7l11.9,18.8l11.6-18.8H343.6z"/>
		<path fill="#282C3F" d="M375,400.5h3.5v35.1h-3.7l-21.9-29.8v29.8h-3.5v-35.1h3.7l21.9,29.8V400.5z"/>
		<path fill="#282C3F" d="M384.5,400.5h26.7v3.3h-11.6v32.1h-3.5v-32.1h-11.6V400.5z"/>
		<path fill="#282C3F" d="M440.3,435.6l-7.7-11.4c-1.2,0-1.9,0-2.6,0h-9.5v11.4H417v-35.1h13c4.4,0,7.7,0.9,10.2,3
			c2.3,2.1,3.5,4.9,3.5,8.6c0,3-0.7,5.3-2.1,7.2c-1.4,1.9-3.5,3.3-6,4l8.4,12.1h-3.7V435.6z M430.3,421.2c3.3,0,5.8-0.7,7.7-2.3
			s2.8-3.7,2.8-6.5c0-2.8-0.9-4.9-2.8-6.5c-1.9-1.6-4.4-2.3-7.7-2.3h-9.5V421h9.5V421.2z"/>
		<path fill="#282C3F" d="M479.8,435.6l-4.2-9.3h-19.5l-4.2,9.3h-3.7l15.8-35.1h3.7l15.8,35.1H479.8z M457.5,423.1h16.7l-8.4-19.1
			L457.5,423.1z"/>
	</g>
	<g enable-background="new    ">
		<path fill="#282C3F" d="M306.1,466.1c-3-1.4-6-2.1-9.1-2.1c-4,0-7.4,0.9-10.7,2.8c-3.3,1.9-5.8,4.4-7.7,7.7
			c-1.9,3.3-2.8,6.7-2.8,10.7s0.9,7.4,2.8,10.7c1.9,3.3,4.4,5.8,7.7,7.7s6.7,2.8,10.7,2.8c3,0,6-0.7,9.1-1.9s5.6-3,7.9-5.3l7,7.9
			c-3.3,3.3-7,6-11.4,7.9c-4.4,1.9-8.8,2.8-13.3,2.8c-6,0-11.6-1.4-16.5-4.2c-5.1-2.8-8.8-6.7-11.9-11.6c-2.8-4.9-4.2-10.2-4.2-16.3
			c0-6,1.4-11.4,4.4-16.3c3-4.9,7-8.8,11.9-11.6c5.1-2.8,10.7-4.2,16.7-4.2c4.4,0,8.8,0.9,13,2.8c4.2,1.9,7.9,4.2,10.9,7.4l-7,8.8
			C311.7,469.6,309.2,467.5,306.1,466.1z"/>
		<path fill="#282C3F" d="M369.8,516.6l-10.7-18.4c-0.5,0-1.2,0-2.3,0h-14.2v18.4h-11.9V454h26c8.1,0,14.4,1.9,18.8,5.6
			c4.4,3.7,6.5,9.1,6.5,15.8c0,4.9-1.2,9.1-3.3,12.6c-2.1,3.5-5.1,6-9.3,7.7l13.7,20.7h-13.5V516.6z M342.9,487.5h14.2
			c4.4,0,7.9-0.9,10.5-3c2.3-1.9,3.5-4.9,3.5-8.8c0-3.7-1.2-6.7-3.5-8.6c-2.3-1.9-5.8-2.8-10.5-2.8h-14.2V487.5z"/>
		<path fill="#282C3F" d="M395.4,454h45.8v10.5h-33.9v15.3h30.5v10.5h-30.5v15.8h34.9v10.5h-46.7V454z"/>
		<path fill="#282C3F" d="M497.3,458c4.9,2.6,8.8,6.3,11.6,11.2c2.8,4.7,4.2,10.2,4.2,16.3c0,6-1.4,11.4-4.2,16
			c-2.8,4.7-6.7,8.4-11.9,11.2c-5.1,2.8-10.7,4-17,4h-25.6V454h26C486.6,454,492.2,455.4,497.3,458z M491,503.3
			c3-1.9,5.3-4.2,7.2-7.2c1.6-3,2.6-6.7,2.6-10.7s-0.9-7.7-2.8-10.7c-1.9-3.3-4.2-5.6-7.4-7.4s-6.5-2.6-10.5-2.6h-14v41.4h14.2
			C484.5,506.1,488,505.2,491,503.3z"/>
		<path fill="#282C3F" d="M523.5,454h11.9v62.6h-11.9V454z"/>
		<path fill="#282C3F" d="M543.8,454h50.9v10.7h-19.5v51.9h-11.9v-51.9h-19.5V454z"/>
	</g>
	<g>
		<path id="Rectangle-16" fill="#526CD0" d="M11.7,372.4h219.5c6.3,0,11.2,4.9,11.2,11.2v131.1c0,6.3-4.9,11.2-11.2,11.2H11.7
			c-6.3,0-11.2-4.9-11.2-11.2V383.5C0.6,377.3,5.5,372.4,11.7,372.4z"/>
		<path id="Rectangle-16_1_" fill="#3D53A7" d="M11.7,372.4h219.5c6.3,0,11.2,4.9,11.2,11.2v5.6c0,6.3-4.9,11.2-11.2,11.2H11.7
			c-6.3,0-11.2-4.9-11.2-11.2v-5.6C0.6,377.3,5.5,372.4,11.7,372.4z"/>
		<defs>
			<filter id="Adobe_OpacityMaskFilter" filterUnits="userSpaceOnUse" x="55.6" y="311.9" width="133.5" height="133.5">
				<feColorMatrix  type="matrix" values="1 0 0 0 0  0 1 0 0 0  0 0 1 0 0  0 0 0 1 0"/>
			</filter>
		</defs>
		<mask maskUnits="userSpaceOnUse" x="55.6" y="311.9" width="133.5" height="133.5" id="mask-2">
			<g filter="url(#Adobe_OpacityMaskFilter)">
				<rect id="path-1" x="47.1" y="311.9" fill="#FFFFFF" width="151.1" height="88.4"/>
			</g>
		</mask>
		<g mask="url(#mask-2)">
			<g transform="translate(2.767742, 0.000000)">
				<circle id="Oval-6" fill="#E4E4E4" cx="119.6" cy="378.7" r="66.7"/>
				<circle id="Oval-6-Copy" fill="#D6D6D6" cx="119.6" cy="378.7" r="57"/>
				<path id="Shape" fill="#616161" d="M131.4,412.4c1.2,1.6,0.9,4-0.7,5.3c-0.7,0.5-1.4,0.7-2.1,0.7c-1.2,0-2.1-0.5-2.8-1.4
					l-22.6-30.9c-0.9-1.2-0.9-2.6-0.2-4c0.7-1.2,1.9-2.1,3.3-2.1h7.9c4.9,0,9.1-3.3,10.7-7.9h-18.4c-2.1,0-3.5-1.6-3.5-3.7
					c0-2.1,1.6-3.7,3.5-3.7h18.4c-1.6-4.7-5.8-7.9-10.7-7.9h-7.9c-2.1,0-3.5-1.6-3.5-3.7c0-2.1,1.6-3.7,3.5-3.7h34.9
					c2.1,0,3.5,1.6,3.5,3.7c0,2.1-1.6,3.7-3.5,3.7h-12.6c1.6,2.3,2.8,5.1,3.5,7.9h9.1c2.1,0,3.5,1.6,3.5,3.7c0,2.1-1.6,3.7-3.5,3.7
					h-9.1c-1.9,8.8-9.3,15.3-18.1,15.3h-0.5L131.4,412.4z"/>
			</g>
		</g>
	</g>
</g>
</svg>
